# xmcd CD database file
#
# Track frame offsets:
#	150
#	10005
#	22370
#	34738
#	46222
#	54835
#	67980
#	79759
#	91299
#	102986
#	116453
#	128596
#	139676
#	149454
#	161692
#	176352
#	190151
#	202119
#	214205
#	226456
#	239061
#	249216
#	260652
#	270807
#	288697
#
# Disc length: 3983 seconds
#
# Revision: 0
# Processed by: cddbd v1.5.2PL0 Copyright (c) Steve Scherf et al.
# Submitted via: Feurio! 1.68 - http://www.feurio.com
#
DISCID=640f8d19
DTITLE=Various Artist - Graduation Day: 50 Songs That Shaped The Beach Boys [CD2]
DYEAR=2013
DGENRE=Blues
TTITLE0=Dick Dale - Let s Go Trippin
TTITLE1=The Four Freshmen - Their Hearts Were Full Of Spring
TTITLE2=Dion - The Wanderer
TTITLE3=Jimmy Charles - A Million To One
TTITLE4=Freddy Cannon - Palisades Park
TTITLE5=Vince Martin - Cindy, Oh Cindy
TTITLE6=The Rivingtons - Papa-Oom-Mow-Mow
TTITLE7=The Mystics - Hushabye
TTITLE8=Bobby Freeman - Do You Want To Dance
TTITLE9=Clyde McPhatter and The Drifters - Money Honey
TTITLE10=Chuck Berry - Johnny B Goode
TTITLE11=Harold Dorman - Mountain Of Love
TTITLE12=Jan and Dean - Heart And Soul
TTITLE13=The Hollywood Argyles - Alley-Oop
TTITLE14=Bobby Boris Pickett and The Crypt Kickers - Monster Mash
TTITLE15=The Five Satins - In The Still Of The Nite
TTITLE16=Johnny Preston - Running Bear
TTITLE17=The Dell-Vikings - Come Go With Me
TTITLE18=Little Willie John - Talk To Me, Talk To Me
TTITLE19=Frankie Ford - Sea Cruise
TTITLE20=Dick Dale and The Del-Tones - Miserlou
TTITLE21=The Students - I'm So Young
TTITLE22=The Highwaymen - Cotton Fields
TTITLE23=The Four Freshmen - Little Girl Blue
TTITLE24=Richard Berry and The Pharaohs - Louie Louie
EXTD=
EXTT0=
EXTT1=
EXTT2=
EXTT3=
EXTT4=
EXTT5=
EXTT6=
EXTT7=
EXTT8=
EXTT9=
EXTT10=
EXTT11=
EXTT12=
EXTT13=
EXTT14=
EXTT15=
EXTT16=
EXTT17=
EXTT18=
EXTT19=
EXTT20=
EXTT21=
EXTT22=
EXTT23=
EXTT24=
PLAYORDER=
